<?xml version="1.0" standalone="no"?>
<!DOCTYPE svg PUBLIC "-//W3C//DTD SVG 20010904//EN"
 "http://www.w3.org/TR/2001/REC-SVG-20010904/DTD/svg10.dtd">
<svg version="1.0" xmlns="http://www.w3.org/2000/svg"
 width="1346.000000pt" height="1160.000000pt" viewBox="0 0 1346.000000 1160.000000"
 preserveAspectRatio="xMidYMid meet">
<metadata>
Created by potrace 1.15, written by Peter Selinger 2001-2017
</metadata>
<g transform="translate(0.000000,1160.000000) scale(0.100000,-0.100000)"
fill="#000000" stroke="none">
<path d="M0 5800 c0 -5793 0 -5800 20 -5800 20 0 20 7 20 5790 l0 5790 6690 0
6690 0 0 -5790 c0 -5783 0 -5790 20 -5790 20 0 20 7 20 5800 l0 5800 -6730 0
-6730 0 0 -5800z"/>
<path d="M8610 11534 c-19 -2 -91 -9 -160 -14 -833 -71 -1699 -427 -2310 -949
-435 -371 -694 -770 -791 -1218 -27 -125 -38 -449 -19 -575 31 -212 117 -388
259 -528 122 -120 222 -156 415 -147 206 9 345 67 483 203 110 108 150 196
167 365 9 91 -22 89 -126 -7 -147 -134 -397 -146 -515 -22 -85 89 -118 221
-110 447 14 452 174 806 513 1131 459 440 1177 743 1944 822 162 16 560 16
720 0 751 -79 1404 -357 1854 -792 220 -213 360 -422 452 -678 220 -608 174
-1419 -111 -1977 -60 -116 -40 -108 -225 -81 -63 10 -203 20 -311 23 -645 19
-1186 -174 -1465 -522 -149 -184 -225 -417 -194 -593 39 -230 232 -410 532
-496 134 -38 242 -49 428 -43 139 5 183 10 280 35 387 101 743 340 1118 752
58 63 109 117 114 119 17 6 156 -110 256 -214 305 -316 495 -767 569 -1350 24
-194 24 -648 -1 -865 -42 -373 -106 -672 -210 -978 -278 -821 -850 -1553
-1606 -2056 -559 -373 -1141 -584 -1855 -673 -200 -25 -819 -25 -1020 0 -948
118 -1612 503 -1879 1089 -71 157 -110 316 -125 508 -24 325 50 619 194 765
67 68 130 97 225 103 174 10 268 -72 375 -325 22 -51 43 -93 48 -93 5 0 39 30
76 67 76 76 119 155 153 280 28 103 30 324 5 427 -45 179 -169 314 -358 389
-98 39 -162 51 -274 51 -310 0 -554 -180 -735 -544 -61 -122 -121 -298 -150
-437 -62 -310 -51 -705 29 -1004 154 -574 586 -1046 1272 -1390 378 -189 777
-306 1227 -359 1040 -123 2148 73 3095 546 908 454 1646 1174 2067 2013 238
477 386 1017 431 1575 17 214 7 642 -19 811 -51 328 -121 544 -275 852 -266
532 -650 967 -1089 1234 -46 27 -83 53 -83 57 0 4 43 72 96 152 186 280 295
490 374 720 176 513 167 1174 -22 1653 -376 957 -1402 1574 -2868 1723 -140
14 -780 28 -865 18z m2020 -4409 c149 -9 370 -62 370 -89 0 -14 -72 -120 -147
-219 -62 -82 -207 -225 -285 -283 -203 -149 -388 -215 -602 -215 -293 1 -483
151 -447 353 38 217 246 364 611 434 93 17 291 33 360 28 25 -2 88 -6 140 -9z"/>
<path d="M303 9420 c-113 -24 -158 -87 -103 -145 33 -35 97 -54 258 -75 161
-22 262 -52 372 -112 401 -215 557 -671 537 -1568 -3 -140 -11 -410 -16 -600
-18 -592 -33 -1459 -41 -2415 -8 -896 -13 -1018 -46 -1250 -65 -459 -229 -745
-507 -885 -107 -54 -191 -77 -329 -90 -228 -20 -334 -53 -367 -112 -14 -24
-14 -30 2 -62 11 -24 26 -38 44 -43 15 -3 118 -1 227 6 413 25 715 33 1527 39
804 7 838 8 858 26 15 14 21 31 21 61 0 83 -70 112 -305 127 -290 18 -412 64
-556 208 -154 153 -222 332 -267 703 -15 124 -17 242 -17 922 1 429 7 1005 13
1280 7 275 17 799 22 1165 14 995 30 1630 41 1680 15 67 30 78 68 51 66 -47
105 -114 243 -414 291 -630 567 -1262 1108 -2542 499 -1179 786 -1868 1025
-2460 154 -381 200 -476 266 -546 90 -97 141 -62 267 188 44 87 123 257 175
378 113 261 270 622 550 1260 512 1168 1113 2489 1666 3658 176 372 233 463
330 528 53 34 57 35 71 9 25 -46 30 -126 20 -309 -5 -102 -14 -310 -20 -461
-6 -151 -17 -428 -25 -615 -8 -187 -24 -587 -35 -890 -35 -981 -41 -1127 -51
-1315 -5 -102 -14 -486 -19 -855 -10 -699 -19 -863 -60 -1044 -91 -399 -224
-503 -744 -582 -72 -10 -146 -27 -165 -37 -83 -41 -90 -109 -15 -147 38 -19
66 -20 1084 -27 575 -3 1173 -8 1330 -9 248 -3 293 -1 343 14 69 21 97 46 97
87 0 64 -38 83 -290 141 -392 91 -528 228 -570 573 -24 201 -31 799 -20 1831
11 1147 27 1822 60 2495 5 107 12 272 15 365 16 474 37 721 75 895 96 431 286
590 772 645 136 15 209 39 227 73 6 12 11 38 11 60 0 48 -28 76 -90 92 -32 7
-342 10 -1044 8 l-1000 -3 -174 -405 c-718 -1676 -1200 -2764 -1712 -3870
-344 -743 -578 -1226 -589 -1214 -4 5 -18 33 -30 63 -34 81 -294 654 -521
1146 -337 731 -505 1110 -722 1625 -149 355 -291 680 -566 1300 -268 605 -336
761 -474 1080 -60 140 -116 261 -123 269 -12 12 -117 16 -602 23 -323 4 -640
12 -703 18 -162 13 -757 21 -807 10z"/>
</g>
</svg>
